# xmcd CD database file
#
# Track frame offsets:
#	150
#	40635
#	86707
#	118187
#	166695
#	219620
#	256310
#	306750
#
# Disc length: 4750 seconds
#
# Revision: 0
# Processed by: cddbd v1.5.1PL0 Copyright (c) Steve Scherf et al.
# Submitted via: CDex 1.51
#
DISCID=64128c08
DTITLE=CHET BAKER - CHET BAKER IN PARIS
DYEAR=1980
DGENRE=Jazz
TTITLE0=For Minors Only - Jimmi Heart
TTITLE1=Chasing The Bird - Charly Parker
TTITLE2=But Not For Me - George Gerschwin
TTITLE3=Down - Miles Davis
TTITLE4=My Funny Valentine - Rodgers and Hart
TTITLE5=Just Friends - Klenner and Lewis
TTITLE6=Tempus Fugit - Bud Powell
TTITLE7=Tune Up - Miles Davis
EXTD=YEAR: 1980
EXTT0=
EXTT1=
EXTT2=
EXTT3=
EXTT4=
EXTT5=
EXTT6=
EXTT7=
PLAYORDER=
